Coordinates
version=1
nRows=18
nColumns=63
inDegrees=yes

Units are S.I. units (second, meters, Newtons, ...)
If the header above contains a line with 'inDegrees', this indicates whether rotational values are in degrees (yes) or radians (no).

endheader
time	pelvis_tilt	pelvis_list	pelvis_rotation	pelvis_tx	pelvis_ty	pelvis_tz	hip_flexion_r	hip_adduction_r	hip_rotation_r	knee_angle_r	knee_angle_r_beta	ankle_angle_r	subtalar_angle_r	mtp_angle_r	hip_flexion_l	hip_adduction_l	hip_rotation_l	knee_angle_l	knee_angle_l_beta	ankle_angle_l	subtalar_angle_l	mtp_angle_l	L5_S1_Flex_Ext	L5_S1_Lat_Bending	L5_S1_axial_rotation	L4_L5_Flex_Ext	L4_L5_Lat_Bending	L4_L5_axial_rotation	L3_L4_Flex_Ext	L3_L4_Lat_Bending	L3_L4_axial_rotation	L2_L3_Flex_Ext	L2_L3_Lat_Bending	L2_L3_axial_rotation	L1_L2_Flex_Ext	L1_L2_Lat_Bending	L1_L2_axial_rotation	L1_T12_Flex_Ext	L1_T12_Lat_Bending	L1_T12_axial_rotation	Abs_r3	Abs_r2	Abs_r1	Abs_t1	Abs_t2	neck_flexion	neck_bending	neck_rotation	arm_flex_r	arm_add_r	arm_rot_r	elbow_flex_r	pro_sup_r	wrist_flex_r	wrist_dev_r	arm_flex_l	arm_add_l	arm_rot_l	elbow_flex_l	pro_sup_l	wrist_flex_l	wrist_dev_l
5.389831	0.769892	-5.014010	81.060391	0.191260	0.881444	0.685210	0.416897	-0.321686	-14.499119	2.778920	0.048501	18.054845	17.282292	0.000000	-2.449451	-1.427951	4.409898	0.800782	0.013976	16.022832	-8.503663	0.000000	0.284399	0.390033	0.639375	0.528157	0.518744	0.679336	0.467239	0.948326	0.679336	0.325040	0.948326	0.559453	0.264093	0.795355	0.519492	0.162506	0.604161	0.479532	2.031433	4.412132	3.556014	0.000000	0.000000	25.170549	4.994175	7.536310	-21.180483	-37.211371	12.866218	144.930215	83.132845	8.035333	20.207307	-27.874251	-35.419139	17.327125	144.207962	81.135562	-10.062460	25.489763
5.406780	0.651751	-5.044634	81.226081	0.191340	0.880994	0.685550	0.404783	-0.401130	-14.583788	2.631900	0.045935	18.172008	17.279872	0.000000	-2.338497	-1.328033	4.656579	0.796663	0.013904	16.008189	-8.696157	0.000000	0.284992	0.370446	0.570760	0.529259	0.492694	0.606433	0.468213	0.900703	0.606433	0.325717	0.900703	0.499415	0.264644	0.755414	0.463742	0.162844	0.573822	0.428070	2.035669	4.190564	3.174396	0.000000	0.000000	25.300393	5.314526	7.773281	-21.274935	-36.044386	12.561381	143.889913	80.580363	8.021959	18.957280	-27.834196	-34.920007	16.677516	143.312085	80.447346	-8.559718	24.394007
5.423729	0.529959	-5.049563	81.435594	0.191374	0.880537	0.685891	0.360618	-0.487649	-14.711285	2.481410	0.043309	18.292108	17.279335	0.000000	-2.248854	-1.222688	4.912595	0.794547	0.013867	15.975230	-8.854776	0.000000	0.283548	0.349059	0.507156	0.526578	0.464248	0.538854	0.465842	0.848701	0.538854	0.324067	0.848701	0.443762	0.263303	0.711800	0.412065	0.162020	0.540692	0.380367	2.025357	3.948620	2.820651	0.000000	0.000000	25.359121	5.633016	7.903832	-21.543608	-34.766814	12.217164	142.697402	77.897760	7.845344	17.612062	-27.794815	-34.398859	16.182851	142.273881	79.989741	-7.109703	23.030898
5.440678	0.405246	-5.025400	81.689669	0.191364	0.880089	0.686237	0.286150	-0.582469	-14.887172	2.341610	0.040869	18.418329	17.276977	0.000000	-2.183907	-1.112222	5.217450	0.794579	0.013868	15.918338	-9.034810	0.000000	0.279375	0.326269	0.457726	0.518827	0.433938	0.486334	0.458985	0.793290	0.486334	0.319298	0.793290	0.400510	0.259428	0.665328	0.371902	0.159635	0.505391	0.343294	1.995548	3.690820	2.545734	0.000000	0.000000	25.322536	5.901112	7.873381	-22.038100	-33.367853	11.773297	141.349325	75.388080	7.700888	16.190989	-27.724347	-33.893744	15.888491	141.076042	79.780288	-5.705981	21.315622
5.457627	0.296547	-4.973497	81.956955	0.191312	0.879642	0.686647	0.186255	-0.666018	-15.072617	2.209352	0.038560	18.540038	17.259575	0.000000	-2.146477	-1.013478	5.547725	0.794602	0.013868	15.874468	-9.229697	0.000000	0.271487	0.305287	0.433603	0.504179	0.406032	0.460703	0.446027	0.742275	0.460703	0.310283	0.742275	0.379403	0.252103	0.622542	0.352302	0.155128	0.472890	0.325202	1.939207	3.453469	2.411570	0.000000	0.000000	25.185809	6.102517	7.721011	-22.767527	-31.898185	11.297025	139.902322	72.900422	7.379743	14.846117	-27.599743	-33.439598	15.866969	139.769247	79.830353	-4.544850	19.502555
5.474576	0.192752	-4.888340	82.230976	0.191246	0.879198	0.687104	0.067356	-0.754214	-15.274077	2.114536	0.036906	18.682567	17.239630	0.000000	-2.143061	-0.915201	5.883202	0.795644	0.013887	15.850273	-9.417934	0.000000	0.258692	0.284263	0.430915	0.480416	0.378070	0.457847	0.425005	0.691157	0.457847	0.295659	0.691157	0.377051	0.240221	0.579669	0.350119	0.147816	0.440324	0.323186	1.847809	3.215641	2.396621	0.000000	0.000000	24.963945	6.215027	7.386135	-23.675724	-30.376689	10.800556	138.347473	70.692869	7.131303	13.596097	-27.499163	-33.028187	16.051503	138.318888	80.138846	-3.493464	17.415354
5.491525	0.102268	-4.778701	82.488352	0.191167	0.878747	0.687606	-0.058069	-0.838839	-15.467561	2.061091	0.035973	18.849124	17.213877	0.000000	-2.168127	-0.825708	6.170609	0.799054	0.013946	15.864947	-9.548167	0.000000	0.241179	0.264810	0.452219	0.447893	0.352197	0.480483	0.396232	0.643859	0.480483	0.275643	0.643859	0.395692	0.223958	0.540000	0.367428	0.137809	0.410191	0.339164	1.722715	2.995583	2.515106	0.000000	0.000000	24.686609	6.248723	6.909300	-24.730485	-28.836715	10.295954	136.699003	68.981404	7.031493	12.364943	-27.444818	-32.638836	16.378571	136.701797	80.704714	-2.304276	15.129426
5.508475	0.032164	-4.650537	82.737997	0.191053	0.878290	0.688160	-0.185711	-0.911512	-15.664247	2.046729	0.035722	19.033309	17.174328	0.000000	-2.215659	-0.753366	6.445235	0.804925	0.014049	15.902382	-9.655226	0.000000	0.218992	0.247729	0.491632	0.406689	0.329479	0.522359	0.359781	0.602328	0.522359	0.250285	0.602328	0.430178	0.203356	0.505169	0.399451	0.125132	0.383732	0.368724	1.564235	2.802358	2.734307	0.000000	0.000000	24.369886	6.202422	6.286121	-25.880460	-27.343843	9.857656	135.005302	67.668060	7.001282	11.357700	-27.416475	-32.269993	16.857613	134.934037	81.518652	-1.041993	12.815535
5.525424	-0.026431	-4.523226	82.941335	0.190954	0.877813	0.688751	-0.284915	-0.981802	-15.830343	2.086464	0.036416	19.238022	17.138049	0.000000	-2.269705	-0.689132	6.718089	0.809765	0.014133	15.928989	-9.826785	0.000000	0.193797	0.232190	0.533472	0.359901	0.308813	0.566814	0.318389	0.564547	0.566814	0.221491	0.564547	0.466788	0.179960	0.473482	0.433446	0.110736	0.359663	0.400104	1.384274	2.626583	2.967009	0.000000	0.000000	24.029093	6.169693	5.655676	-26.903644	-25.979910	9.627232	133.206458	67.032834	7.131566	10.342670	-27.594919	-31.821190	17.308399	133.043192	82.515385	0.256907	10.493616
5.542373	-0.072215	-4.401417	83.098470	0.190860	0.877336	0.689386	-0.351270	-1.047166	-15.968368	2.176848	0.037993	19.450331	17.094406	0.000000	-2.323941	-0.635005	6.988516	0.815029	0.014225	15.930314	-10.063406	0.000000	0.165965	0.218354	0.575566	0.308213	0.290410	0.611539	0.272664	0.530905	0.611539	0.189681	0.530905	0.503620	0.154115	0.445267	0.467648	0.094832	0.338230	0.431675	1.185470	2.470060	3.201127	0.000000	0.000000	23.646498	6.161112	5.023179	-27.753531	-24.797456	9.644705	131.333830	67.115817	7.307234	9.416824	-27.917606	-31.272105	17.685032	131.065425	83.622399	1.667403	8.390259
5.559322	-0.106266	-4.296438	83.209822	0.190773	0.876865	0.690055	-0.376298	-1.107037	-16.084760	2.310179	0.040320	19.659127	17.059456	0.000000	-2.366024	-0.592382	7.231113	0.821582	0.014339	15.910929	-10.318691	0.000000	0.136808	0.206416	0.620394	0.254066	0.274533	0.659168	0.224761	0.501879	0.659168	0.156358	0.501879	0.542844	0.127040	0.420923	0.504070	0.078172	0.319738	0.465295	0.977204	2.335017	3.450443	0.000000	0.000000	23.226943	6.186584	4.410739	-28.421307	-23.792220	9.845939	129.366759	67.956390	7.691296	8.459169	-28.287166	-30.661782	18.091342	129.013017	84.729660	2.788531	6.417144
5.576271	-0.145918	-4.220909	83.255416	0.190729	0.876400	0.690741	-0.347641	-1.175217	-16.159409	2.474930	0.043196	19.845165	17.030070	0.000000	-2.384502	-0.543937	7.425611	0.826227	0.014420	15.867230	-10.602342	0.000000	0.108260	0.194625	0.671548	0.201050	0.258851	0.713520	0.177861	0.473210	0.713520	0.123731	0.473210	0.587605	0.100531	0.396879	0.545633	0.061860	0.301474	0.503661	0.773293	2.201633	3.734950	0.000000	0.000000	22.779886	6.239322	3.833440	-28.907624	-22.977321	10.236610	127.345783	69.517569	8.141403	7.550161	-28.658157	-29.999785	18.473094	126.953378	85.826323	3.641262	4.767374
5.593220	-0.175996	-4.171980	83.294006	0.190652	0.875965	0.691435	-0.280933	-1.235929	-16.239071	2.661206	0.046447	20.009706	17.005809	0.000000	-2.376875	-0.507851	7.613189	0.835241	0.014578	15.834004	-10.861636	0.000000	0.079546	0.185218	0.719456	0.147724	0.246340	0.764422	0.130685	0.450340	0.764422	0.090913	0.450340	0.629524	0.073866	0.377697	0.584558	0.045452	0.286903	0.539592	0.568186	2.095226	4.001397	0.000000	0.000000	22.298988	6.342480	3.361332	-29.205743	-22.332022	10.727418	125.262506	71.692486	8.887737	6.636501	-28.940452	-29.324926	18.874887	124.874039	86.641664	4.136865	3.286366
5.610169	-0.208778	-4.161283	83.305804	0.190592	0.875540	0.692111	-0.167822	-1.296874	-16.307230	2.854758	0.049825	20.150171	16.988636	0.000000	-2.332955	-0.472669	7.767682	0.847906	0.014799	15.827694	-11.086114	0.000000	0.052966	0.176866	0.771296	0.098364	0.235232	0.819502	0.087019	0.430032	0.819502	0.060535	0.430032	0.674884	0.049185	0.360665	0.626678	0.030265	0.273966	0.578472	0.378334	2.000745	4.289718	0.000000	0.000000	21.816419	6.476606	2.974572	-29.371981	-21.813568	11.251888	123.160207	74.318950	9.888690	5.771428	-29.075340	-28.691498	19.328474	122.825604	87.243244	4.287927	2.055785
5.627119	-0.246831	-4.184271	83.289829	0.190560	0.875123	0.692766	-0.015366	-1.360031	-16.355633	3.050030	0.053233	20.276120	16.979513	0.000000	-2.259431	-0.435278	7.869356	0.861990	0.015045	15.864414	-11.250443	0.000000	0.028392	0.169311	0.828632	0.052727	0.225184	0.880421	0.046645	0.411664	0.880421	0.032449	0.411664	0.725053	0.026365	0.345260	0.673263	0.016223	0.262263	0.621474	0.202801	1.915284	4.608600	0.000000	0.000000	21.374223	6.593578	2.649504	-29.424847	-21.382348	11.750713	121.074431	77.108859	11.203024	5.047806	-29.018052	-28.134247	19.858526	120.820487	87.630405	4.222771	1.060750
5.644068	-0.284553	-4.233361	83.268197	0.190532	0.874709	0.693375	0.161953	-1.419374	-16.398443	3.243146	0.056604	20.402563	16.967358	0.000000	-2.163450	-0.401053	7.936556	0.879754	0.015355	15.952124	-11.346011	0.000000	0.005718	0.163103	0.885330	0.010618	0.216926	0.940663	0.009394	0.396568	0.940663	0.006535	0.396568	0.774664	0.005309	0.332599	0.719330	0.003267	0.252646	0.663997	0.040841	1.845049	4.923939	0.000000	0.000000	21.001135	6.688868	2.389282	-29.362349	-21.012010	12.202728	119.025494	79.817805	12.811547	4.477533	-28.778971	-27.656095	20.457576	118.851539	87.897526	4.102734	0.192662
5.661017	-0.322159	-4.303712	83.282734	0.190447	0.874297	0.693918	0.349510	-1.475795	-16.482832	3.423622	0.059753	20.540564	16.963831	0.000000	-2.045948	-0.369052	7.992457	0.902317	0.015748	16.088593	-11.354421	0.000000	-0.014185	0.158146	0.928692	-0.026344	0.210335	0.986736	-0.023305	0.384517	0.986736	-0.016213	0.384517	0.812606	-0.013173	0.322492	0.754563	-0.008106	0.244969	0.696519	-0.101325	1.788985	5.165108	0.000000	0.000000	20.722608	6.779418	2.211898	-29.177047	-20.708612	12.653780	117.024455	82.179327	14.493776	3.965319	-28.386633	-27.233868	21.085034	116.889052	88.081465	4.080345	-0.718902
5.677966	-0.366935	-4.391345	83.307380	0.190376	0.873871	0.694403	0.548834	-1.536272	-16.568559	3.597564	0.062789	20.707221	16.962321	0.000000	-1.912456	-0.333286	8.026991	0.928352	0.016203	16.257824	-11.297047	0.000000	-0.030224	0.153041	0.965112	-0.056128	0.203545	1.025431	-0.049655	0.372104	1.025431	-0.034543	0.372104	0.844473	-0.028066	0.312081	0.784153	-0.017270	0.237061	0.723834	-0.215885	1.731230	5.367661	0.000000	0.000000	20.541348	6.877501	2.101625	-28.911628	-20.420764	13.029562	115.108814	84.250357	16.262324	3.571254	-27.846527	-26.862335	21.722257	114.986926	88.135200	4.121259	-1.481730
